<?xml version="1.0" encoding="utf-8"?>
<!-- Generator: Adobe Illustrator 28.1.0, SVG Export Plug-In . SVG Version: 6.00 Build 0)  -->
<svg version="1.1" id="Ebene_1" xmlns="http://www.w3.org/2000/svg" xmlns:xlink="http://www.w3.org/1999/xlink" x="0px" y="0px"
	 viewBox="0 0 1009.1 992.1" style="enable-background:new 0 0 1009.1 992.1;" xml:space="preserve">
<style type="text/css">
	.st0{fill:#FFFFFF;}
</style>
<g>
	<path class="st0" d="M351.1,1190.5l-134.4-134.4l560.8-560.8L218.6-63.5L353-198l626.1,626.1c17.8,17.8,27.8,42,27.8,67.2
		s-10,49.4-27.8,67.2L351.1,1190.5z"/>
</g>
<g>
	<path d="M21.9,353.8h-21v-11.6h55v11.6H34.7v62.3H21.9V353.8z"/>
	<path d="M106.7,366.9c3.4,4,5.1,9.5,5.1,16.4v32.8H99.5v-31c0-4.4-0.9-7.8-2.7-10.1c-1.8-2.3-4.5-3.4-8.1-3.4
		c-3.8,0-6.6,1.4-8.6,4.1c-2,2.7-3,6.7-3,11.9v28.5H64.8v-78.2h12.3v33.3c1.4-3.3,3.4-5.8,6.1-7.6c2.7-1.8,5.9-2.7,9.6-2.7
		C98.6,360.9,103.3,362.9,106.7,366.9z"/>
	<path d="M171.6,392.9h-38.5c0.3,4.5,1.8,8.1,4.3,10.7c2.5,2.6,5.8,4,9.8,4c3.1,0,5.9-0.8,8.1-2.5c2.3-1.7,3.7-3.9,4.3-6.8l10.6,2.9
		c-0.5,3.2-1.8,6-3.9,8.6c-2.1,2.5-4.8,4.5-8.2,5.9c-3.3,1.4-7,2.1-10.9,2.1c-5.3,0-9.9-1.2-13.9-3.6c-4-2.4-7.1-5.8-9.3-10.1
		c-2.2-4.3-3.3-9.3-3.3-15c0-5.4,1.1-10.3,3.4-14.7c2.3-4.4,5.4-7.8,9.3-10.3c4-2.5,8.5-3.7,13.4-3.7c4.9,0,9.2,1.2,13,3.5
		c3.8,2.4,6.8,5.6,9,9.7c2.2,4.1,3.2,8.8,3.2,14.1C172,389.5,171.9,391.2,171.6,392.9z M159.7,384.2c0-4.1-1.2-7.5-3.6-10
		c-2.4-2.5-5.6-3.8-9.6-3.8c-3.6,0-6.6,1.2-9,3.7c-2.4,2.5-3.8,5.8-4.3,10.1H159.7z"/>
	<path d="M247.9,397h-29.6l-6.9,19.1h-13l27-73.9h16.2l26.6,73.9h-13.7L247.9,397z M243.9,385.7l-10.6-30.1l-10.9,30.1H243.9z"/>
	<path d="M278.7,342.2h12.8v73.9h-12.8V342.2z"/>
	<path d="M5.9,450.9h12.8v62.3h31.6v11.6H5.9V450.9z"/>
	<path d="M109.2,501.6H70.7c0.3,4.5,1.8,8.1,4.3,10.7c2.5,2.6,5.8,4,9.8,4c3.1,0,5.9-0.8,8.1-2.5c2.3-1.7,3.7-3.9,4.3-6.8l10.6,2.9
		c-0.5,3.2-1.8,6-3.9,8.6s-4.8,4.5-8.2,5.9c-3.3,1.4-7,2.1-10.9,2.1c-5.3,0-9.9-1.2-13.9-3.6c-4-2.4-7.1-5.8-9.3-10.1
		c-2.2-4.3-3.3-9.3-3.3-15c0-5.4,1.1-10.3,3.4-14.7c2.3-4.4,5.4-7.8,9.3-10.3c4-2.5,8.5-3.7,13.4-3.7c4.9,0,9.2,1.2,13,3.5
		c3.8,2.4,6.8,5.6,9,9.7c2.2,4.1,3.2,8.8,3.2,14.1C109.6,498.2,109.4,499.9,109.2,501.6z M97.3,492.9c0-4.1-1.2-7.5-3.6-10
		c-2.4-2.5-5.6-3.8-9.6-3.8c-3.6,0-6.6,1.2-9,3.7c-2.4,2.5-3.8,5.8-4.3,10.1H97.3z"/>
	<path d="M122.8,521.8c-3-2.8-4.5-6.4-4.5-10.8c0-5.1,2.3-9.2,6.8-12.4c4.5-3.2,10.6-5,18.3-5.4l5.8-0.2v-1.6c0-3.5-0.9-6.3-2.8-8.3
		c-1.8-2-4.4-3-7.7-3c-3.2,0-5.8,1-7.9,2.9c-2,2-3.2,4.7-3.4,8.4l-11.6-1.1c0.4-6.5,2.7-11.6,6.9-15.4c4.2-3.8,9.6-5.7,16.2-5.7
		c4.4,0,8.4,1,11.8,2.9c3.4,1.9,6.1,4.7,8,8.2c1.9,3.5,2.8,7.7,2.8,12.4v15.9c0,6.3,0.4,11.7,1.2,16.3h-11.8c-0.5-2-0.7-4.8-0.7-8.3
		c-0.8,2.8-2.5,5-5.3,6.8c-2.8,1.8-6.1,2.7-9.9,2.7C129.9,525.9,125.8,524.6,122.8,521.8z M146.5,513.7c2-2.3,3-5.6,3-9.8v-3
		l-5.4,0.3c-4.3,0.2-7.6,1.1-10,2.8c-2.3,1.6-3.5,3.8-3.5,6.6c0,2,0.7,3.6,2.2,4.8c1.4,1.2,3.4,1.8,5.9,1.8
		C141.9,517.1,144.6,516,146.5,513.7z"/>
	<path d="M172.9,470.9H185l-0.1,15.9h0.2c1-5.3,3.2-9.4,6.6-12.3c3.5-2.9,7.7-4.4,12.8-4.4l0.7,13.7c-0.3-0.1-0.8-0.1-1.4-0.1
		c-6.4,0-11.1,1.8-14.1,5.3c-3,3.5-4.5,8.8-4.5,15.9v20h-12.3V470.9z"/>
	<path d="M255.6,475.6c3.4,4,5.1,9.5,5.1,16.4v32.8h-12.3v-31c0-4.4-0.9-7.8-2.7-10.1c-1.8-2.3-4.5-3.4-8.1-3.4
		c-3.8,0-6.6,1.4-8.6,4.1s-3,6.7-3,11.9v28.5h-12.3v-53.9h12v9.7c1.3-3.5,3.3-6.2,6.1-8.1c2.7-1.9,6-2.9,9.9-2.9
		C247.5,469.6,252.2,471.6,255.6,475.6z"/>
	<path d="M272.2,459.8c-1.7-1.8-2.5-4-2.5-6.6c0-2.5,0.8-4.7,2.5-6.5c1.7-1.8,3.7-2.7,6.2-2.7c2.4,0,4.4,0.9,6.2,2.7
		c1.7,1.8,2.6,3.9,2.6,6.5c0,2.6-0.9,4.8-2.6,6.6c-1.7,1.8-3.8,2.7-6.2,2.7C275.9,462.5,273.9,461.6,272.2,459.8z M272.2,470.9h12.3
		v53.9h-12.3V470.9z"/>
	<path d="M338.7,475.6c3.4,4,5.1,9.5,5.1,16.4v32.8h-12.3v-31c0-4.4-0.9-7.8-2.7-10.1c-1.8-2.3-4.5-3.4-8.1-3.4
		c-3.8,0-6.6,1.4-8.6,4.1c-2,2.7-3,6.7-3,11.9v28.5h-12.3v-53.9h12v9.7c1.3-3.5,3.3-6.2,6.1-8.1c2.7-1.9,6-2.9,9.9-2.9
		C330.6,469.6,335.2,471.6,338.7,475.6z"/>
	<path d="M362.3,541.6c-4.6-3.7-7.1-8.8-7.5-15.2l11.8-1.2c0.3,3.5,1.7,6.3,4.2,8.2c2.5,1.9,5.6,2.9,9.4,2.9c4.4,0,7.7-1.4,10.1-4.2
		c2.3-2.8,3.5-6.7,3.5-11.8v-6c-1.1,2.4-3.1,4.3-6.1,5.8c-3,1.5-6.2,2.2-9.8,2.2c-4.7,0-9-1.1-12.8-3.4c-3.8-2.3-6.8-5.4-8.9-9.4
		c-2.2-4-3.2-8.5-3.2-13.5s1.1-9.5,3.3-13.5c2.2-4,5.2-7.1,9-9.4c3.8-2.3,8.1-3.4,12.9-3.4c3.5,0,6.7,0.8,9.8,2.3
		c3,1.5,5.2,3.4,6.6,5.8v-6.9h11.6v46.5c0,9.3-2.3,16.6-6.8,21.8c-4.6,5.3-10.8,7.9-18.8,7.9C372.9,547.1,366.9,545.3,362.3,541.6z
		 M390.5,507.1c2.8-2.9,4.2-6.6,4.2-11.1s-1.4-8.2-4.2-11.1c-2.8-2.9-6.3-4.3-10.5-4.3c-4.2,0-7.7,1.4-10.4,4.3
		c-2.8,2.9-4.2,6.6-4.2,11.1s1.4,8.2,4.1,11.1c2.7,2.9,6.2,4.4,10.5,4.4C384.2,511.5,387.7,510,390.5,507.1z"/>
	<path d="M486.3,505.7c5.1,10.3,8.8,16.6,10.9,19h-14.9c-2.3-3.3-4.8-7.7-7.4-13l-11-21.7l-10.5,11.3v23.5h-12.8v-73.9h12.8v33.4
		l30.2-33.4h16.8l-27.3,29.2L486.3,505.7z"/>
	<path d="M508,459.8c-1.7-1.8-2.5-4-2.5-6.6c0-2.5,0.8-4.7,2.5-6.5c1.7-1.8,3.7-2.7,6.2-2.7c2.4,0,4.4,0.9,6.2,2.7
		c1.7,1.8,2.6,3.9,2.6,6.5c0,2.6-0.9,4.8-2.6,6.6c-1.7,1.8-3.8,2.7-6.2,2.7C511.8,462.5,509.7,461.6,508,459.8z M508.1,470.9h12.3
		v53.9h-12.3V470.9z"/>
	<path d="M548.3,493.8c-1.6,4.6-2.5,8.4-2.5,11.6c0,2.9,0.8,5.2,2.4,6.8c1.6,1.7,3.8,2.5,6.6,2.5c2.7,0,5.4-0.6,8.3-1.7l1.7,9.9
		c-1.7,0.9-3.7,1.7-5.9,2.2c-2.2,0.5-4.3,0.8-6.3,0.8c-5.8,0-10.4-1.7-13.9-5.2c-3.5-3.4-5.3-8-5.3-13.7c0-4.8,1.3-10.7,4-17.7
		l2.8-7.5h-9v-11h13.1l6.1-16.5l10.7,4.5l-4.4,12.1h13v11h-17.1L548.3,493.8z"/>
	<path d="M10.1,591.3H1.3v-11h8.8v-6.4c0-3.9,0.8-7.4,2.4-10.4c1.6-3,3.9-5.3,6.7-7s6.1-2.5,9.8-2.5c3,0,5.8,0.5,8.3,1.4l-1.8,11.1
		c-1.7-0.6-3.6-1-5.8-1s-3.9,0.8-5.2,2.3c-1.4,1.6-2.1,3.8-2.1,6.6v5.9h12.4v11H22.4v42.2H10.1V591.3z"/>
	<path d="M53.1,631.4c-4.2-2.5-7.5-6-9.9-10.4c-2.4-4.4-3.6-9.2-3.6-14.5s1.2-10.1,3.6-14.5s5.7-7.8,9.9-10.4
		c4.2-2.5,8.8-3.8,13.9-3.8c5,0,9.6,1.3,13.8,3.8c4.2,2.5,7.5,6,9.9,10.4s3.6,9.2,3.6,14.5s-1.2,10.1-3.6,14.5
		c-2.4,4.4-5.7,7.8-9.9,10.4s-8.8,3.8-13.8,3.8C61.9,635.2,57.3,633.9,53.1,631.4z M77.6,619c2.8-3.3,4.2-7.4,4.2-12.5
		s-1.4-9.2-4.2-12.5c-2.8-3.3-6.4-4.9-10.7-4.9c-4.4,0-8,1.6-10.8,4.9c-2.8,3.3-4.2,7.4-4.2,12.5s1.4,9.2,4.2,12.5
		c2.8,3.3,6.4,4.9,10.8,4.9C71.3,623.9,74.8,622.2,77.6,619z"/>
	<path d="M103.8,579.5h12.1l-0.1,15.9h0.2c1-5.3,3.2-9.4,6.6-12.3c3.5-2.9,7.7-4.4,12.8-4.4l0.7,13.7c-0.3-0.1-0.8-0.1-1.4-0.1
		c-6.4,0-11.1,1.8-14.1,5.3c-3,3.5-4.5,8.8-4.5,15.9v20h-12.3V579.5z"/>
	<path d="M176.4,631.8c-4.1-2.2-7.2-5.3-9.5-9.3c-2.3-4-3.4-8.6-3.4-13.8l12.8-0.5c0,4.8,1.3,8.6,3.9,11.5c2.6,2.9,6.1,4.3,10.5,4.3
		c3.9,0,7-0.9,9.3-2.8c2.3-1.8,3.4-4.3,3.4-7.4c0-5.4-3.1-8.7-9.4-10l-7.8-1.5c-6.8-1.2-12-3.7-15.5-7.4c-3.5-3.7-5.2-8.5-5.2-14.6
		c0-4.4,1.1-8.3,3.2-11.7c2.2-3.4,5.2-6.1,9.1-7.9c3.9-1.9,8.5-2.8,13.6-2.8c5.4,0,10.2,1.1,14.3,3.4c4.1,2.2,7.3,5.4,9.6,9.6
		c2.3,4.1,3.4,8.9,3.4,14.2l-12.8,0.5c0-5-1.3-9-4-12s-6.2-4.5-10.6-4.5c-3.9,0-7,0.9-9.3,2.8c-2.3,1.9-3.5,4.4-3.5,7.5
		c0,5.5,3.1,8.8,9.4,10l7.8,1.5c6.8,1.3,12,3.8,15.5,7.5c3.5,3.7,5.2,8.5,5.2,14.4c0,4.4-1.1,8.3-3.2,11.7c-2.2,3.4-5.2,6-9.1,7.9
		c-3.9,1.8-8.5,2.8-13.6,2.8C185.2,635.2,180.4,634.1,176.4,631.8z"/>
	<path d="M239.4,631.5c-4.1-2.5-7.3-5.9-9.6-10.2c-2.3-4.3-3.4-9.3-3.4-14.8c0-5.5,1.1-10.4,3.4-14.8c2.3-4.3,5.5-7.8,9.6-10.2
		c4.1-2.5,8.7-3.7,13.9-3.7c4.8,0,9,1,12.8,2.9c3.7,1.9,6.7,4.6,8.9,8.2c2.2,3.5,3.4,7.6,3.5,12.3l-11.7,1.4
		c-0.4-4.3-1.8-7.6-4.2-9.9c-2.4-2.4-5.5-3.5-9.2-3.5c-4.3,0-7.8,1.6-10.5,4.8c-2.7,3.2-4,7.4-4,12.6c0,5.2,1.3,9.4,4,12.6
		c2.7,3.2,6.2,4.8,10.5,4.8c3.5,0,6.4-1,8.6-3c2.3-2,3.6-4.9,4.1-8.6l11.6,2.4c-0.6,6.4-3.1,11.4-7.5,15.1c-4.4,3.7-10,5.5-16.8,5.5
		C248.1,635.2,243.5,633.9,239.4,631.5z"/>
	<path d="M329.9,584.2c3.4,4,5.1,9.5,5.1,16.4v32.8h-12.3v-31c0-4.4-0.9-7.8-2.7-10.1s-4.5-3.4-8.1-3.4c-3.8,0-6.6,1.4-8.6,4.1
		c-2,2.7-3,6.7-3,11.9v28.5H288v-78.2h12.3v33.3c1.4-3.3,3.4-5.8,6.1-7.6c2.7-1.8,5.9-2.7,9.6-2.7
		C321.9,578.2,326.5,580.2,329.9,584.2z"/>
	<path d="M357.3,631.4c-4.2-2.5-7.5-6-9.9-10.4c-2.4-4.4-3.6-9.2-3.6-14.5s1.2-10.1,3.6-14.5c2.4-4.4,5.7-7.8,9.9-10.4
		c4.2-2.5,8.8-3.8,13.9-3.8c5,0,9.6,1.3,13.8,3.8c4.2,2.5,7.5,6,9.9,10.4c2.4,4.4,3.6,9.2,3.6,14.5s-1.2,10.1-3.6,14.5
		c-2.4,4.4-5.7,7.8-9.9,10.4s-8.8,3.8-13.8,3.8C366.1,635.2,361.5,633.9,357.3,631.4z M381.9,619c2.8-3.3,4.2-7.4,4.2-12.5
		s-1.4-9.2-4.2-12.5s-6.4-4.9-10.7-4.9c-4.4,0-8,1.6-10.8,4.9c-2.8,3.3-4.2,7.4-4.2,12.5s1.4,9.2,4.2,12.5c2.8,3.3,6.4,4.9,10.8,4.9
		C375.5,623.9,379.1,622.2,381.9,619z"/>
	<path d="M419.1,631.4c-4.2-2.5-7.5-6-9.9-10.4c-2.4-4.4-3.6-9.2-3.6-14.5s1.2-10.1,3.6-14.5c2.4-4.4,5.7-7.8,9.9-10.4
		c4.2-2.5,8.8-3.8,13.9-3.8c5,0,9.6,1.3,13.8,3.8c4.2,2.5,7.5,6,9.9,10.4c2.4,4.4,3.6,9.2,3.6,14.5s-1.2,10.1-3.6,14.5
		c-2.4,4.4-5.7,7.8-9.9,10.4c-4.2,2.5-8.8,3.8-13.8,3.8C427.9,635.2,423.2,633.9,419.1,631.4z M443.6,619c2.8-3.3,4.2-7.4,4.2-12.5
		s-1.4-9.2-4.2-12.5s-6.4-4.9-10.7-4.9c-4.4,0-8,1.6-10.8,4.9c-2.8,3.3-4.2,7.4-4.2,12.5s1.4,9.2,4.2,12.5c2.8,3.3,6.4,4.9,10.8,4.9
		C437.2,623.9,440.8,622.2,443.6,619z"/>
	<path d="M474.6,629.2c-3-3.4-4.6-8.7-4.6-15.8v-58.2h12.3v57.3c0,3.5,0.6,6.2,1.7,7.9s3.2,2.6,6.1,2.6c1.8,0,3.5-0.3,5-0.9
		l0.3,11.1c-2,0.8-4.7,1.2-8.1,1.2C481.9,634.4,477.6,632.7,474.6,629.2z"/>
	<path d="M507.5,630c-3.9-3.4-6-7.9-6.1-13.5l11-0.8c0.1,3.1,1.2,5.6,3.1,7.4s4.4,2.7,7.5,2.7c2.7,0,4.8-0.6,6.3-1.8
		c1.5-1.2,2.3-2.8,2.3-4.8c0-1.7-0.6-3.1-1.7-4.2c-1.2-1.1-2.9-1.9-5.1-2.3l-6-1c-5.4-0.9-9.5-2.8-12.2-5.7
		c-2.7-2.8-4.1-6.4-4.1-10.9c0-3.3,0.9-6.3,2.6-9c1.7-2.6,4.2-4.7,7.3-6.2c3.1-1.5,6.7-2.3,10.8-2.3c6.6,0,11.9,1.7,15.9,5.2
		c4,3.5,6,8.2,6.1,14l-11,0.8c-0.2-3.3-1.3-6-3.2-7.9s-4.5-2.9-7.8-2.9c-2.7,0-4.8,0.6-6.4,1.9c-1.6,1.3-2.4,2.9-2.4,5.1
		c0,3.5,2.3,5.8,6.9,6.6l6,1c5.4,0.9,9.5,2.8,12.3,5.6c2.8,2.8,4.2,6.4,4.2,10.8c0,5.1-1.9,9.3-5.7,12.4c-3.8,3.1-8.8,4.7-15,4.7
		C516.6,635.2,511.5,633.5,507.5,630z"/>
</g>
</svg>
